<svg width="36" height="35" viewBox="0 0 36 35" fill="none" xmlns="http://www.w3.org/2000/svg">
<rect width="35.1255" height="34.5436" rx="6" transform="matrix(1 0 0 -1 0.26709 34.5853)" fill="white" fill-opacity="0.85"/>
<path d="M26.6419 13.6118C26.6419 10.0473 23.7036 7.15779 20.0791 7.15779C16.4547 7.15779 14.8533 10.6399 14.8533 14.2044C14.8533 17.7688 16.4547 20.0658 20.0791 20.0658C23.7036 20.0658 26.6419 17.1762 26.6419 13.6118Z" fill="url(#paint0_linear_127_1020)"/>
<g filter="url(#filter0_b_127_1020)">
<path d="M9.14111 25.0825C9.14111 26.7978 10.555 28.1882 12.2991 28.1882H18.8189C20.563 28.1882 21.9769 26.7978 21.9769 25.0825V9.55413C21.9769 7.8389 20.563 6.44844 18.8189 6.44844H12.2991C10.555 6.44844 9.14111 7.8389 9.14111 9.55413V25.0825Z" fill="#EDEDED" fill-opacity="0.37"/>
</g>
<path d="M14.1329 23.2792C14.1329 22.5046 13.4944 21.8766 12.7067 21.8766C11.9191 21.8766 11.2805 22.5046 11.2805 23.2792C11.2805 24.0538 11.9191 24.6818 12.7067 24.6818C13.4944 24.6818 14.1329 24.0538 14.1329 23.2792Z" fill="white"/>
<path d="M19.1246 23.2792C19.1246 22.5046 18.4861 21.8766 17.6984 21.8766C16.9107 21.8766 16.2722 22.5046 16.2722 23.2792C16.2722 24.0538 16.9107 24.6817 17.6984 24.6817C18.4861 24.6817 19.1246 24.0538 19.1246 23.2792Z" fill="white"/>
<path d="M14.1329 17.6689C14.1329 16.8943 13.4944 16.2663 12.7067 16.2663C11.919 16.2663 11.2805 16.8943 11.2805 17.6689C11.2805 18.4435 11.919 19.0715 12.7067 19.0715C13.4944 19.0715 14.1329 18.4435 14.1329 17.6689Z" fill="white"/>
<path d="M19.1246 17.6689C19.1246 16.8943 18.4861 16.2663 17.6984 16.2663C16.9107 16.2663 16.2722 16.8943 16.2722 17.6689C16.2722 18.4435 16.9107 19.0715 17.6984 19.0715C18.4861 19.0715 19.1246 18.4435 19.1246 17.6689Z" fill="white"/>
<path d="M14.1329 12.0587C14.1329 11.2841 13.4944 10.6561 12.7067 10.6561C11.919 10.6561 11.2805 11.2841 11.2805 12.0587C11.2805 12.8333 11.919 13.4612 12.7067 13.4612C13.4944 13.4612 14.1329 12.8333 14.1329 12.0587Z" fill="white"/>
<path d="M19.1246 12.0587C19.1246 11.2841 18.4861 10.6561 17.6984 10.6561C16.9107 10.6561 16.2722 11.2841 16.2722 12.0587C16.2722 12.8333 16.9107 13.4612 17.6984 13.4612C18.4861 13.4612 19.1246 12.8333 19.1246 12.0587Z" fill="white"/>
<defs>
<filter id="filter0_b_127_1020" x="-15.8589" y="-18.5516" width="62.8357" height="71.7398" filterUnits="userSpaceOnUse" color-interpolation-filters="sRGB">
<feFlood flood-opacity="0" result="BackgroundImageFix"/>
<feGaussianBlur in="BackgroundImageFix" stdDeviation="12.5"/>
<feComposite in2="SourceAlpha" operator="in" result="effect1_backgroundBlur_127_1020"/>
<feBlend mode="normal" in="SourceGraphic" in2="effect1_backgroundBlur_127_1020" result="shape"/>
</filter>
<linearGradient id="paint0_linear_127_1020" x1="14.8533" y1="14.0421" x2="26.3594" y2="13.9952" gradientUnits="userSpaceOnUse">
<stop stop-color="#47C2FF"/>
<stop offset="1" stop-color="#63CBFE" stop-opacity="0.65"/>
</linearGradient>
</defs>
</svg>
