<svg width="474" height="452" viewBox="0 0 474 452" fill="none" xmlns="http://www.w3.org/2000/svg">
<path d="M451.46 199.42L376.813 180.967C373.382 180.12 371.327 176.798 372.222 173.548L385.887 123.949C386.782 120.699 390.289 118.751 393.72 119.6L468.367 138.052C471.798 138.9 473.854 142.223 472.958 145.472L459.294 195.071C458.399 198.321 454.891 200.268 451.46 199.42Z" fill="white"/>
<path d="M442.106 156.993L431.74 154.43L434.445 144.611C435.08 142.306 433.622 139.951 431.189 139.349L425.488 137.94C423.055 137.338 420.568 138.719 419.933 141.024L417.228 150.843L406.862 148.281C404.429 147.679 401.942 149.06 401.307 151.365L399.819 156.765C399.184 159.07 400.642 161.426 403.075 162.027L413.441 164.589L410.736 174.409C410.101 176.713 411.559 179.069 413.992 179.671L419.693 181.08C422.126 181.682 424.613 180.301 425.248 177.996L427.953 168.177L438.319 170.739C440.752 171.341 443.239 169.959 443.874 167.655L445.362 162.255C445.996 159.95 444.539 157.593 442.106 156.993Z" fill="#D3756D"/>
<path d="M67.1836 76.9312C59.8556 79.377 51.8226 75.7329 49.2406 68.7915L37.1976 36.4183C34.6156 29.4769 38.4626 21.8677 45.7906 19.4209C53.1186 16.9751 61.1516 20.6192 63.7336 27.5606L75.7756 59.9338C78.3586 66.8762 74.5116 74.4854 67.1836 76.9312Z" fill="white"/>
<path d="M43.2196 52.6049L49.2406 68.7915C51.8226 75.7329 59.8566 79.377 67.1846 76.9312C74.5126 74.4854 78.3596 66.8752 75.7776 59.9338L69.7566 43.7472L43.2196 52.6049Z" fill="#D3756D"/>
<path d="M86.6386 66.2993C79.6306 63.1203 76.6706 55.1625 80.0266 48.5251L95.6776 17.5681C99.0336 10.9308 107.435 8.12595 114.442 11.3049C121.449 14.4839 124.41 22.4417 121.054 29.0791L105.403 60.0361C102.047 66.6744 93.6456 69.4782 86.6386 66.2993Z" fill="white"/>
<path d="M87.8516 33.0471L80.0266 48.5251C76.6706 55.1625 79.6306 63.1213 86.6386 66.2993C93.6456 69.4782 102.048 66.6744 105.403 60.0361L113.229 44.5571L87.8516 33.0471Z" fill="#A1D0EF"/>
<path d="M381.775 414.94C375.813 395.827 367.558 381.056 361.138 336.747C360.941 335.386 300.89 292.764 299.227 292.003C297.564 291.242 205.214 174.279 192.374 164.722C179.533 155.165 125.877 102.168 113.036 93.9134C100.195 85.6601 73.5965 100.43 90.5645 126.929C107.533 153.428 152.017 191.655 153.852 192.09C155.686 192.525 132.298 229.449 132.298 229.449C132.298 229.449 96.5265 282.882 102.489 296.783C108.451 310.683 162.565 363.681 185.037 383.664C202.065 398.807 217.168 434.897 229.521 451.495H393.772C391.128 443.724 385.994 428.467 381.775 414.94Z" fill="#DC9678"/>
<path d="M316.425 369.762H160.042C154.343 369.762 149.723 365.386 149.723 359.988V47.6499C149.723 42.2515 154.343 37.8762 160.042 37.8762H316.424C322.123 37.8762 326.742 42.2524 326.742 47.6499V359.988C326.743 365.386 322.123 369.762 316.425 369.762Z" fill="#54443C"/>
<path d="M309.546 362.811H166.921C161.222 362.811 156.603 358.435 156.603 353.037V54.5998C156.603 49.2015 161.223 44.8252 166.921 44.8252H309.545C315.244 44.8252 319.864 49.2015 319.864 54.5998V353.037C319.864 358.435 315.244 362.811 309.546 362.811Z" fill="#C5E1F4"/>
<path d="M305.724 359.916H170.743C165.044 359.916 160.425 355.539 160.425 350.141V57.4965C160.425 52.0981 165.045 47.7228 170.743 47.7228H305.724C311.423 47.7228 316.043 52.0991 316.043 57.4965V350.142C316.042 355.539 311.423 359.916 305.724 359.916Z" fill="#0360D9"/>
<path d="M119.354 263.999C103.947 259.25 86.9856 280.991 98.3826 294.062C109.78 307.133 124.368 317.154 137.133 316.283C149.898 315.411 159.015 297.548 154.001 289.27C148.986 280.991 133.486 268.356 119.354 263.999Z" fill="#DC9678"/>
<path d="M123.959 219.294C107.654 214.267 89.7046 237.277 101.766 251.108C113.827 264.941 129.266 275.545 142.774 274.624C156.283 273.701 165.932 254.797 160.625 246.037C155.318 237.277 138.915 223.905 123.959 219.294Z" fill="#DC9678"/>
<path d="M129.92 173.681C113.615 168.655 95.6656 191.664 107.727 205.495C119.788 219.327 135.227 229.933 148.735 229.011C162.244 228.088 171.893 209.184 166.586 200.424C161.28 191.664 144.876 178.292 129.92 173.681Z" fill="#DC9678"/>
<path d="M118.354 221.774C118.354 221.774 113.143 212.479 111.264 205C109.385 197.521 109.102 191.534 106.355 190.827C103.609 190.12 103.851 192.874 103.63 195.897C103.408 198.919 104.095 203.95 104.095 203.95C104.095 203.95 100.871 199.808 99.0326 195.563C97.1946 191.316 95.4376 187.988 93.6606 187.204C91.8836 186.42 91.0356 187.874 91.0356 187.874C91.0356 187.874 88.1476 185.56 87.1986 188.639C87.1986 188.639 84.7956 189.061 84.8366 192.293C84.8366 192.293 83.3836 195.181 84.3926 198.337C85.4026 201.493 87.6376 208.255 92.8286 214.547C98.0186 220.84 100.948 223.612 105.896 227.151C110.843 230.688 118.354 221.774 118.354 221.774Z" fill="#E5B4A0"/>
<path d="M219.04 180.554C217.977 180.459 203.478 229.384 202.748 230.076C202.019 230.767 214.906 272.687 216.851 272.456C218.796 272.226 252.838 247.351 253.811 245.738C254.784 244.126 270.103 196.448 269.373 195.527C268.643 194.605 263.294 180.555 263.294 180.555C263.294 180.555 240.194 177.331 238.978 177.561C237.763 177.79 219.04 180.554 219.04 180.554Z" fill="#B4D9F6"/>
<path d="M233.386 195.065C233.386 195.065 219.04 236.985 217.094 241.591C215.149 246.198 222.2 279.826 222.2 279.826C222.2 279.826 245.543 248.501 244.814 248.041C244.085 247.581 244.085 198.981 242.869 196.447C241.653 193.913 234.845 193.453 233.386 195.065Z" fill="#D3756D"/>
<path d="M153.874 279.366C164.33 278.905 181.107 262.552 181.107 262.552C179.277 294.147 179.828 346.522 180.057 362.811H295.698C295.988 357.475 294.904 344.318 294.904 344.318C301.955 345.009 320.678 337.869 320.678 337.869C320.678 337.869 322.867 312.302 320.678 292.493C318.49 272.686 311.195 214.412 300.01 200.362C288.825 186.312 263.294 180.553 263.294 180.553C258.187 206.351 229.252 271.073 229.252 271.073C219.283 232.839 219.039 180.553 219.039 180.553C219.039 180.553 197.398 184.469 188.888 192.53C180.378 200.592 153.144 241.13 149.74 239.288C146.336 237.445 116.648 212.93 114.526 212.724C112.036 212.481 97.3636 218.79 100.768 224.779C104.173 230.768 143.418 279.826 153.874 279.366Z" fill="white"/>
<path d="M229.252 193.683C229.252 193.683 231.44 198.52 237.276 198.981C243.112 199.442 248.218 195.065 248.218 195.065C248.218 195.065 244.814 186.313 244.084 186.083C243.355 185.852 238.978 182.398 238.978 182.398L229.981 189.768L229.252 193.683Z" fill="#D3756D"/>
<path d="M238.492 184.7C238.492 184.7 245.787 195.757 247.732 198.751C247.732 198.751 260.619 185.162 263.294 180.555C263.294 180.555 259.89 175.257 256.486 174.797C253.082 174.337 242.626 177.331 242.626 177.331L238.492 184.7Z" fill="#9EBED6"/>
<path d="M238.492 184.701C238.492 184.701 229.495 195.757 227.793 198.981C227.793 198.981 219.769 185.852 219.039 180.555C219.039 180.555 223.416 176.409 226.577 175.949C229.738 175.489 232.413 174.797 233.142 174.797C233.872 174.796 238.492 184.701 238.492 184.701Z" fill="#9EBED6"/>
<path d="M229.252 162.128C229.252 162.128 228.036 172.953 226.577 175.947C226.577 175.947 235.574 181.936 238.492 184.7C238.492 184.7 252.352 178.481 256.486 174.795C256.486 174.795 253.568 163.509 253.568 157.29C253.568 151.072 229.252 162.128 229.252 162.128Z" fill="#E5B4A0"/>
<path d="M217.015 148.486C217.015 148.486 201.844 141.349 200.849 119.196C199.854 97.0441 217.015 92.3675 217.015 92.3675C217.015 92.3675 215.274 83.9986 225.969 79.8146C236.664 75.6306 253.576 87.691 258.302 95.321C258.302 95.321 260.54 92.6138 266.758 94.8285C272.976 97.0431 277.204 109.351 276.458 114.765C276.458 114.765 283.173 116.981 282.676 128.057C282.179 139.133 268.002 159.316 251.338 157.593C234.674 155.871 217.015 148.486 217.015 148.486Z" fill="#6C4446"/>
<path d="M255.838 172.116C254.979 168.391 253.567 161.616 253.567 157.291C253.567 154.473 248.57 155.206 243.108 156.847L228.941 164.611C228.796 165.697 228.605 167.037 228.379 168.429C235.855 174.302 246.943 175.899 255.838 172.116Z" fill="#DC967B"/>
<path d="M262.953 129.535C262.953 129.535 269.969 127.565 271.528 133.719C273.087 139.872 268.93 145.287 263.473 146.025C263.473 146.025 259.315 168.67 238.528 169.408C217.74 170.147 212.024 140.365 212.544 125.596C212.544 125.596 222.158 122.15 225.276 113.289C225.276 113.289 234.89 120.673 241.906 123.135C248.922 125.596 249.961 123.135 249.961 123.135C249.961 123.135 256.977 128.303 262.953 129.535Z" fill="#E5B4A0"/>
<path d="M267.918 136.701C267.548 136.11 266.721 135.751 266.009 135.965C265.953 135.982 265.907 136.011 265.853 136.031C265.857 136.017 265.86 136.002 265.864 135.987C265.876 135.951 265.939 135.788 265.945 135.761C265.979 135.692 266.013 135.623 266.051 135.555C266.103 135.463 266.16 135.373 266.219 135.284C266.254 135.233 266.29 135.183 266.327 135.133C266.483 134.966 266.642 134.812 266.814 134.659C266.846 134.631 266.849 134.626 266.859 134.616C266.87 134.611 266.876 134.611 266.912 134.589C267.021 134.526 267.126 134.458 267.238 134.401C267.284 134.377 267.627 134.232 267.394 134.323C267.556 134.26 267.718 134.199 267.875 134.123C268.19 133.969 268.375 133.759 268.571 133.484C268.778 133.192 268.703 132.722 268.435 132.485C267.861 131.98 267.152 131.959 266.448 132.23C265.835 132.465 265.3 132.777 264.807 133.201C263.91 133.971 263.299 135.076 263.125 136.207C262.911 137.592 263.169 138.918 263.783 140.185C264.133 140.906 264.616 141.55 265.446 141.811C266.289 142.077 267.177 141.792 267.832 141.273C268.502 140.743 268.868 139.866 268.81 139.047C268.753 138.19 268.375 137.429 267.918 136.701Z" fill="#DC967B"/>
<path d="M268.566 127.805C267.702 127.96 266.789 127.931 265.915 128.034C265.095 128.131 264.286 128.195 263.459 128.16C261.73 128.088 259.997 127.653 258.426 126.971C256.866 126.294 255.388 125.442 253.993 124.499C253.281 124.019 252.593 123.507 251.922 122.977C251.689 122.793 251.434 122.552 251.158 122.344C251.086 121.868 250.551 121.551 250.029 121.647C249.595 121.727 249.228 121.971 248.79 122.059C248.21 122.176 247.605 122.212 247.014 122.235C245.844 122.279 244.668 122.204 243.517 122.006C241.132 121.597 238.86 120.769 236.738 119.671C234.621 118.576 232.643 117.257 230.744 115.853C229.811 115.163 228.823 114.537 227.866 113.878C227.307 113.492 226.528 112.893 225.776 112.871C225.576 112.603 225.295 112.5 224.956 112.56C224.1 112.71 223.82 113.776 223.473 114.409C223.102 115.084 222.692 115.74 222.247 116.374C221.331 117.677 220.257 118.872 219.063 119.955C216.716 122.084 213.904 123.712 210.852 124.762C209.976 125.064 209.087 125.34 208.203 125.622C207.747 125.767 207.293 125.915 206.832 126.046C206.415 126.164 205.946 126.247 205.593 126.499C205.422 126.621 205.364 126.897 205.593 127.006C206.295 127.346 207.279 127.223 208.044 127.185C208.912 127.14 209.805 127.014 210.64 126.781C212.357 126.302 214.012 125.619 215.567 124.78C218.683 123.096 221.407 120.776 223.497 118.016C224.059 117.274 224.571 116.498 225.028 115.694C225.272 115.263 225.687 114.652 225.874 114.055C226.256 114.342 226.603 114.685 226.95 115.004C227.657 115.656 228.359 116.32 229.099 116.937C230.605 118.195 232.292 119.332 233.985 120.351C237.405 122.41 241.287 123.904 245.362 124.152C246.479 124.221 247.594 124.174 248.702 124.028C249.34 123.945 250.067 123.813 250.577 123.442C250.761 123.639 250.94 123.839 251.132 124.029C251.802 124.699 252.498 125.347 253.238 125.948C254.696 127.133 256.264 128.146 258.031 128.868C259.823 129.601 261.728 130.047 263.685 130.1C264.648 130.126 265.69 130.094 266.618 129.827C267.556 129.558 268.235 129.052 268.987 128.487C269.356 128.21 268.941 127.738 268.566 127.805Z" fill="#8B575B"/>
<path d="M220.901 108.478C219.993 109.621 219.361 110.924 218.351 112.005C217.341 113.087 216.193 114.06 215.049 115.011C213.923 115.949 212.747 116.833 211.431 117.524C210.126 118.208 208.754 118.796 207.413 119.412C207.211 119.505 207.3 119.757 207.469 119.822C210.761 121.058 214.086 118.358 216.381 116.419C217.636 115.359 218.757 114.184 219.709 112.87C220.603 111.636 221.573 110.189 221.54 108.643C221.533 108.296 221.097 108.232 220.901 108.478Z" fill="#8B575B"/>
<path d="M217.576 106.193C217.566 106.162 217.532 106.151 217.503 106.165C216.992 106.401 216.715 106.758 216.368 107.184C216.004 107.631 215.648 108.075 215.255 108.5C214.505 109.314 213.643 110.044 212.728 110.687C211.798 111.341 210.816 111.921 209.828 112.492C209.311 112.791 208.777 113.086 208.302 113.443C207.822 113.804 207.376 114.282 206.821 114.539C206.685 114.601 206.754 114.804 206.896 114.802C207.553 114.793 208.17 114.778 208.809 114.582C209.403 114.401 209.965 114.045 210.496 113.74C211.586 113.115 212.655 112.447 213.665 111.71C214.646 110.994 215.565 110.21 216.333 109.286C217.007 108.476 217.924 107.26 217.576 106.193Z" fill="#8B575B"/>
<path d="M266.913 115.469C266.293 115.496 265.677 115.565 265.063 115.644C264.356 115.735 263.688 115.766 262.983 115.795C261.646 115.848 260.315 116.03 258.98 116.118C256.29 116.294 253.591 116.266 250.911 115.972C245.657 115.397 240.565 113.763 235.882 111.46C233.096 110.091 230.392 108.477 228.144 106.386C228.004 106.256 227.709 106.386 227.791 106.581C228.335 107.871 229.238 108.798 230.34 109.705C231.406 110.582 232.558 111.407 233.729 112.156C236.098 113.673 238.652 114.879 241.339 115.802C246.596 117.605 252.331 118.453 257.919 118.135C259.472 118.046 261.09 117.908 262.595 117.519C263.35 117.324 264.063 117.036 264.807 116.806C265.577 116.567 266.333 116.283 267.036 115.9C267.241 115.789 267.159 115.459 266.913 115.469Z" fill="#8B575B"/>
<path d="M267.19 105.852C265.396 106.984 263.236 107.486 261.14 107.862C258.877 108.268 256.597 108.496 254.293 108.502C249.652 108.513 245.036 107.841 240.665 106.343C239.428 105.919 238.202 105.446 237.02 104.898C235.877 104.368 234.757 103.718 233.53 103.378C233.375 103.336 233.298 103.512 233.385 103.614C234.146 104.507 235.226 105.138 236.263 105.707C237.321 106.287 238.4 106.83 239.516 107.303C241.776 108.261 244.125 109.023 246.538 109.554C251.312 110.607 256.365 110.749 261.181 109.839C263.683 109.366 266.176 108.322 267.514 106.156C267.628 105.972 267.392 105.725 267.19 105.852Z" fill="#8B575B"/>
<path d="M257.859 102.116C254.536 101.639 251.11 102.309 247.763 102.145C246.14 102.065 244.492 101.849 242.94 101.379C242.277 101.178 241.618 100.906 241.032 100.549C240.426 100.179 239.975 99.6604 239.413 99.2464C239.379 99.2209 239.331 99.236 239.328 99.2796C239.23 100.518 240.679 101.526 241.696 102.029C243.255 102.799 244.993 103.22 246.722 103.471C248.559 103.738 250.425 103.791 252.28 103.684C254.145 103.577 256.121 103.304 257.859 102.623C258.076 102.538 258.165 102.16 257.859 102.116Z" fill="#8B575B"/>
<path d="M225.081 128.453C224.394 128.196 223.614 128.095 222.88 128.181C222.047 128.279 221.277 128.537 220.625 129.05C220.081 129.477 219.523 130.218 219.502 130.906C219.488 131.366 220.037 131.623 220.438 131.415C220.676 131.291 220.911 131.069 221.098 130.942C221.269 130.825 221.536 130.694 221.757 130.589C221.865 130.537 221.971 130.481 222.08 130.432C222.094 130.426 222.105 130.421 222.127 130.414C222.203 130.386 222.278 130.357 222.354 130.331C222.476 130.29 222.601 130.254 222.727 130.224C222.789 130.209 222.856 130.202 222.918 130.185C222.935 130.181 222.928 130.181 222.933 130.178C222.95 130.177 222.949 130.179 222.98 130.176C223.113 130.167 223.246 130.162 223.38 130.165C223.447 130.166 223.513 130.17 223.58 130.174C223.605 130.175 223.612 130.176 223.626 130.178C223.764 130.2 223.9 130.227 224.035 130.263C224.099 130.28 224.163 130.299 224.227 130.319C224.236 130.322 224.285 130.338 224.321 130.35C224.359 130.368 224.481 130.418 224.478 130.418C224.538 130.446 224.596 130.476 224.655 130.508C224.762 130.565 224.865 130.631 224.965 130.697C224.977 130.705 224.987 130.713 225.008 130.728C225.119 130.813 225.231 130.897 225.346 130.974C225.553 131.115 225.812 131.203 226.069 131.181C226.638 131.133 226.979 130.795 227.042 130.259C227.149 129.337 225.829 128.732 225.081 128.453Z" fill="#6C4446"/>
<path d="M226.819 134.898C226.583 134.251 226.142 133.776 225.464 133.529C224.849 133.306 224.146 133.409 223.646 133.814C223.115 134.245 223.048 134.899 223.007 135.516C222.97 136.072 222.905 136.635 222.911 137.193C222.918 137.841 223.09 138.482 223.572 138.961C224.187 139.571 225.304 139.668 226.079 139.293C227.247 138.728 226.951 137.594 226.977 136.554C226.99 136.006 227.01 135.423 226.819 134.898Z" fill="#6C4446"/>
<path d="M248.359 128.453C247.672 128.196 246.892 128.095 246.158 128.181C245.325 128.279 244.555 128.537 243.903 129.05C243.359 129.477 242.801 130.218 242.78 130.906C242.766 131.366 243.315 131.623 243.716 131.415C243.954 131.291 244.189 131.069 244.376 130.942C244.547 130.825 244.814 130.694 245.035 130.589C245.143 130.537 245.249 130.481 245.358 130.432C245.372 130.426 245.383 130.421 245.405 130.414C245.481 130.386 245.556 130.357 245.632 130.331C245.754 130.29 245.879 130.254 246.005 130.224C246.067 130.209 246.134 130.202 246.196 130.185C246.214 130.181 246.206 130.181 246.211 130.178C246.228 130.177 246.227 130.179 246.258 130.176C246.391 130.167 246.524 130.162 246.658 130.165C246.725 130.166 246.791 130.17 246.858 130.174C246.883 130.175 246.89 130.176 246.904 130.178C247.042 130.2 247.178 130.227 247.313 130.263C247.377 130.28 247.441 130.299 247.505 130.319C247.514 130.322 247.562 130.338 247.599 130.35C247.637 130.368 247.759 130.418 247.756 130.418C247.816 130.446 247.874 130.476 247.933 130.508C248.04 130.565 248.143 130.631 248.243 130.697C248.256 130.705 248.265 130.713 248.286 130.728C248.397 130.813 248.509 130.897 248.624 130.974C248.831 131.115 249.09 131.203 249.347 131.181C249.916 131.133 250.257 130.795 250.32 130.259C250.427 129.337 249.106 128.732 248.359 128.453Z" fill="#6C4446"/>
<path d="M247.852 134.898C247.616 134.251 247.175 133.776 246.497 133.529C245.882 133.306 245.179 133.409 244.679 133.814C244.148 134.245 244.081 134.899 244.04 135.516C244.003 136.072 243.938 136.635 243.944 137.193C243.951 137.841 244.123 138.482 244.605 138.962C245.196 139.548 246.305 139.677 247.085 139.323C248.293 138.774 247.983 137.607 248.009 136.555C248.023 136.006 248.043 135.423 247.852 134.898Z" fill="#6C4446"/>
<path d="M238.074 145.203C237.686 144.98 237.186 144.917 236.754 145.043C236.54 145.106 236.363 145.21 236.168 145.304C236.07 145.352 235.929 145.388 235.841 145.45C235.78 145.475 235.72 145.499 235.659 145.523C235.604 145.549 235.551 145.58 235.498 145.608C235.398 145.66 235.296 145.706 235.195 145.753C235.15 145.768 235.106 145.784 235.061 145.798C234.944 145.833 234.827 145.863 234.707 145.888C234.696 145.89 234.679 145.893 234.663 145.896C234.548 145.902 234.434 145.909 234.319 145.904C234.283 145.903 234.247 145.9 234.211 145.897C234.173 145.89 234.134 145.882 234.096 145.876C233.963 145.849 233.828 145.832 233.692 145.822C233.761 145.829 233.829 145.838 233.898 145.846C233.626 145.739 233.256 145.702 232.978 145.663C233.363 145.717 232.974 145.648 232.878 145.621C232.699 145.568 232.529 145.537 232.342 145.561C232.027 145.601 232.357 145.553 232.363 145.558C232.361 145.555 232.247 145.565 232.238 145.565C232.052 145.578 231.917 145.621 231.808 145.778C231.472 146.263 231.609 146.743 231.855 147.23C232.143 147.8 232.785 148.196 233.402 148.403C234.528 148.781 235.779 148.601 236.853 148.172C237.23 148.021 237.517 147.81 237.835 147.563C238.254 147.237 238.598 146.837 238.609 146.295C238.616 145.87 238.479 145.435 238.074 145.203Z" fill="#DC967B"/>
<path d="M232.125 153.296C232.147 153.289 232.17 153.29 232.192 153.284C232.104 153.292 232.028 153.301 232.125 153.296Z" fill="white"/>
<path d="M238.021 153.361C237.793 153.331 237.566 153.303 237.337 153.276C237.505 153.297 237.674 153.318 237.842 153.34C237.54 153.298 237.3 153.261 237.004 153.298C236.85 153.318 236.73 153.335 236.586 153.367C236.56 153.372 236.534 153.375 236.508 153.381C236.384 153.391 236.261 153.397 236.136 153.399C236.006 153.379 235.872 153.347 235.751 153.347C235.593 153.347 235.426 153.372 235.259 153.402C234.695 153.455 234.099 153.465 233.546 153.399C233.37 153.376 233.194 153.35 233.018 153.331C233.174 153.351 233.33 153.371 233.486 153.391C233.367 153.376 233.25 153.356 233.132 153.334C233.081 153.324 233.031 153.313 232.98 153.303C232.899 153.29 232.818 153.279 232.737 153.271C232.555 153.232 232.372 153.241 232.19 153.285C232.262 153.278 232.342 153.272 232.339 153.272C232.207 153.291 232.062 153.289 231.933 153.322C231.488 153.438 231.205 153.748 231.043 154.144C230.75 154.865 231.271 155.59 231.723 156.12C232.04 156.492 232.472 156.783 232.91 157.019C233.378 157.271 233.879 157.473 234.412 157.551C235.292 157.681 236.264 157.773 237.028 157.312C237.317 157.203 237.601 157.083 237.867 156.938C238.123 156.798 238.402 156.629 238.607 156.437C238.949 156.118 239.065 155.817 239.243 155.405C239.574 154.643 238.882 153.476 238.021 153.361Z" fill="white"/>
<path d="M267.438 184.613C267.375 184.209 266.73 184.331 266.714 184.706C266.582 187.717 266.755 190.743 266.691 193.758C266.627 196.736 266.486 199.712 266.242 202.682C265.995 205.673 265.662 208.66 265.228 211.631C265.016 213.085 264.79 214.538 264.517 215.982C264.4 216.6 264.345 217.314 264.073 217.894C263.797 218.484 263.134 218.662 262.56 218.913C259.242 220.36 255.921 221.801 252.606 223.253C252.104 223.473 252.033 224.228 252.428 224.563C254.14 226.014 255.954 227.314 257.787 228.612C256.228 231.21 254.865 233.924 253.404 236.573C251.798 239.484 250.169 242.383 248.517 245.27C243.841 253.446 239.007 261.532 233.922 269.484C232.633 271.501 231.374 273.502 230.441 275.694C230.393 275.132 230.301 274.576 230.15 274.023C230.122 273.527 230.087 273.029 230.029 272.535C230.001 272.293 229.97 272.023 229.858 271.8C229.796 271.677 229.696 271.629 229.616 271.532C229.53 271.426 229.465 271.292 229.384 271.181C229.285 271.047 229.077 271.067 229.02 271.226C228.984 271.329 228.959 271.452 228.915 271.553C228.867 271.662 228.786 271.75 228.747 271.866C228.672 272.089 228.718 272.382 228.739 272.609C228.781 273.056 228.825 273.502 228.857 273.95C228.72 273.615 228.569 273.284 228.435 272.948C228.178 272.303 227.929 271.654 227.675 271.007C227.483 270.52 227.316 269.942 227.02 269.483C226.78 268.902 226.518 268.328 226.25 267.763C225.588 266.364 224.951 264.954 224.335 263.537C223.099 260.691 221.958 257.808 220.915 254.893C218.854 249.137 217.165 243.262 215.871 237.309C215.16 234.039 214.572 230.743 214.105 227.434C215.484 226.109 216.873 224.795 218.228 223.449C218.644 223.036 218.615 222.252 218.027 221.973C216.678 221.332 215.343 220.66 214.003 220.002C212.715 219.369 211.363 218.794 210.119 218.087C209.587 217.784 209.731 217.361 209.8 216.83C209.897 216.091 209.998 215.352 210.099 214.614C210.296 213.178 210.498 211.743 210.695 210.307C211.48 204.589 212.388 198.89 213.318 193.191C213.832 190.042 214.516 186.89 214.783 183.712C214.823 183.237 214.064 183.17 213.929 183.602C213.026 186.486 212.54 189.495 211.96 192.451C211.378 195.42 210.856 198.398 210.336 201.376C209.816 204.353 209.319 207.335 208.846 210.32C208.613 211.793 208.399 213.269 208.188 214.744C208.089 215.44 207.989 216.134 207.894 216.83C207.793 217.567 207.756 218.281 208.239 218.91C208.659 219.458 209.311 219.746 209.927 220.054C210.69 220.434 211.454 220.814 212.217 221.195C213.438 221.803 214.66 222.411 215.879 223.024C214.813 224.038 213.752 225.057 212.692 226.076C212.269 226.483 212.03 226.733 212.07 227.323C212.097 227.712 212.18 228.104 212.236 228.491C212.369 229.406 212.511 230.319 212.662 231.231C213.242 234.727 213.958 238.204 214.805 241.651C216.501 248.546 218.728 255.321 221.465 261.908C222.241 263.775 223.059 265.626 223.916 267.46C225.308 270.439 227.55 272.92 228.466 276.093C229.426 279.42 229.353 282.958 229.274 286.376C228.702 311.125 228.877 336.131 234.66 360.272C234.879 361.188 235.159 362.181 235.957 362.739C236.679 361.906 236.463 360.685 236.218 359.633C233.1 346.222 231.665 332.516 231.051 318.813C230.743 311.936 230.643 305.051 230.636 298.168C230.633 294.631 230.655 291.096 230.688 287.56C230.695 286.752 230.156 278.794 230.532 278.612C230.574 278.591 230.621 278.587 230.659 278.558C230.961 278.327 231.009 277.869 231.119 277.535C232.067 274.649 234.703 272.461 236.287 269.803C238.407 266.245 240.529 262.653 242.68 259.084C246.5 252.745 250.205 246.345 253.794 239.887C255.821 236.24 258.002 232.604 259.709 228.812C259.905 228.377 259.836 227.931 259.39 227.658C257.719 226.634 256.148 225.433 254.639 224.19C257.33 223.009 260.02 221.825 262.708 220.637C264.017 220.058 265.185 219.505 265.595 218.087C266.002 216.677 266.124 215.134 266.346 213.688C267.291 207.535 267.822 201.325 267.888 195.106C267.925 191.629 267.972 188.058 267.438 184.613Z" fill="#D8D8D8"/>
<path d="M207.097 316.063C207.084 315.857 206.855 315.709 206.654 315.822C206.324 316.01 206.049 316.028 205.717 316.256C205.317 316.532 205.116 316.986 204.859 317.377C204.345 318.155 203.794 318.911 203.223 319.653C202.128 321.074 200.966 322.452 199.792 323.815C198.691 325.094 197.523 326.372 196.139 327.386C195.423 327.91 194.63 328.309 193.848 328.733C193.482 328.931 193.106 329.123 192.752 329.339C192.364 329.576 192.242 329.761 192.023 330.117C192.005 330.146 192.018 330.179 192.045 330.198C192.37 330.415 192.541 330.544 192.986 330.557C193.417 330.569 193.912 330.476 194.326 330.371C195.25 330.135 196.097 329.667 196.875 329.149C198.448 328.102 199.759 326.788 200.979 325.39C202.238 323.947 203.469 322.475 204.649 320.972C205.276 320.175 205.883 319.361 206.446 318.522C206.693 318.153 207.053 317.744 207.173 317.317C207.304 316.856 207.123 316.481 207.097 316.063Z" fill="#D8D8D8"/>
<path d="M273.311 325.965C272.949 326.046 272.708 325.769 272.412 325.639C272.155 325.525 271.874 325.456 271.603 325.378C271.097 325.232 270.587 325.097 270.085 324.936C269.163 324.64 268.271 324.279 267.403 323.863C265.557 322.976 263.85 321.849 262.342 320.506C260.841 319.169 259.638 317.651 258.511 316.025C258.238 315.632 257.959 315.243 257.68 314.854C257.424 314.499 257.19 314.057 256.799 313.817C256.369 313.554 255.608 313.472 255.557 314.103C255.553 314.156 255.624 314.192 255.669 314.165C255.88 314.034 256.104 314.92 256.148 315.067C256.294 315.553 256.482 316.024 256.704 316.484C257.118 317.339 257.658 318.133 258.248 318.889C259.481 320.466 260.907 321.893 262.531 323.114C264.157 324.336 265.92 325.366 267.83 326.139C268.757 326.515 269.712 326.863 270.691 327.1C271.222 327.229 271.87 327.379 272.412 327.225C272.856 327.099 273.245 326.702 273.593 326.426C273.828 326.237 273.573 325.906 273.311 325.965Z" fill="#D8D8D8"/>
<path d="M294.617 332.717C294.59 329.148 294.528 325.579 294.433 322.01C294.243 314.872 293.917 307.739 293.456 300.613C292.531 286.318 290.934 272.075 289.453 257.825C289.039 253.844 288.647 249.858 288.15 245.885C287.898 243.873 287.631 241.865 287.342 239.858C287.053 237.853 286.796 235.84 286.272 233.88C286.197 233.6 285.775 233.674 285.759 233.945C285.557 237.485 285.957 241.108 286.239 244.642C286.523 248.212 286.871 251.775 287.232 255.339C287.953 262.471 288.669 269.605 289.396 276.738C290.843 290.93 291.891 305.144 292.337 319.397C292.462 323.38 292.544 327.365 292.584 331.349C292.604 333.342 292.606 335.334 292.617 337.326C292.627 339.337 292.563 341.347 293.139 343.296C293.266 343.723 293.909 343.712 294.042 343.296C294.598 341.551 294.613 339.761 294.627 337.948C294.638 336.204 294.63 334.46 294.617 332.717Z" fill="#D8D8D8"/>
<path d="M185.63 233.793C185.641 233.544 185.28 233.529 185.199 233.738C184.745 234.899 184.17 236.007 183.813 237.204C183.482 238.314 183.293 239.447 183.095 240.583C182.691 242.897 182.331 245.217 182.007 247.542C181.683 249.866 181.439 252.185 181.302 254.528C181.235 255.674 181.163 256.821 181.128 257.968C181.095 259.04 180.931 260.237 181.455 261.219C181.494 261.292 181.598 261.278 181.641 261.219C182.292 260.322 182.31 259.107 182.459 258.053C182.626 256.867 182.781 255.679 182.962 254.494C183.309 252.219 183.62 249.942 183.943 247.665C184.266 245.383 184.632 243.107 185.036 240.836C185.238 239.701 185.457 238.577 185.563 237.429C185.674 236.217 185.576 235.007 185.63 233.793Z" fill="#D8D8D8"/>
<path d="M94.1116 208.272C93.7586 207.511 93.3916 206.756 93.0316 205.998C92.2576 204.369 91.4666 202.746 90.6826 201.12C90.0046 199.716 89.3606 198.283 88.5796 196.927C88.0556 196.016 87.1286 194.602 85.9056 194.502C85.7866 194.492 85.6906 194.607 85.7646 194.71C86.1126 195.194 86.6266 195.566 86.9896 196.05C87.3866 196.579 87.7106 197.16 87.9966 197.748C88.7026 199.199 89.3376 200.684 90.0136 202.149C90.7166 203.67 91.4176 205.193 92.1296 206.711C92.4856 207.47 92.8286 208.236 93.2046 208.986C93.4866 209.547 93.7246 210.239 94.4026 210.442C94.4746 210.463 94.5626 210.412 94.5916 210.351C94.9176 209.68 94.3946 208.882 94.1116 208.272Z" fill="#DC967B"/>
<path d="M96.3176 201.176C95.3266 199.495 94.3266 197.816 93.2466 196.184C92.1896 194.588 91.0126 193.063 89.6976 191.649C89.3896 191.318 89.0786 190.988 88.7466 190.679C88.5476 190.492 88.3216 190.223 88.0236 190.185C87.7166 190.146 87.3826 190.394 87.6306 190.659C87.6496 190.679 87.6936 190.678 87.6976 190.644C87.7366 190.347 88.0646 190.801 88.0706 190.808C88.1886 190.958 88.3086 191.108 88.4296 191.255C88.6736 191.551 88.9226 191.843 89.1616 192.143C89.6396 192.744 90.0886 193.363 90.5356 193.984C91.4556 195.26 92.3136 196.579 93.1396 197.912C93.9476 199.217 94.7156 200.542 95.4786 201.871C96.2786 203.263 96.8996 204.708 97.6366 206.126C97.7296 206.305 98.0086 206.306 98.0586 206.093C98.4646 204.345 97.1716 202.627 96.3176 201.176Z" fill="#DC967B"/>
<path d="M98.7906 198.441C98.2176 197.266 97.5906 196.113 96.9316 194.978C96.2706 193.841 95.5696 192.726 94.8316 191.632C94.4626 191.087 94.0946 190.536 93.6886 190.014C93.3406 189.567 93.0106 189.067 92.4976 188.779C92.4266 188.74 92.3146 188.809 92.3316 188.887C92.4436 189.408 92.7856 189.834 93.0726 190.283C93.4276 190.839 93.8086 191.38 94.1686 191.933C94.8876 193.04 95.5686 194.17 96.2086 195.32C96.8496 196.472 97.4456 197.647 98.0116 198.833C98.5276 199.914 98.9186 201.185 99.7826 202.071C99.8796 202.171 100.027 202.059 100.028 201.952C100.038 200.729 99.3186 199.523 98.7906 198.441Z" fill="#DC967B"/>
<path d="M241.784 198.951C241.225 198.725 240.558 198.757 239.965 198.797C239.269 198.845 238.574 198.868 237.879 198.793C237.227 198.721 236.586 198.571 235.961 198.384C235.644 198.29 235.339 198.173 235.033 198.05C234.721 197.924 234.387 197.722 234.05 197.68C233.7 197.634 233.372 197.936 233.572 198.269C233.919 198.848 234.789 199.218 235.407 199.478C236.119 199.777 236.86 199.98 237.632 200.082C238.405 200.185 239.19 200.226 239.966 200.123C240.653 200.031 241.475 199.787 241.85 199.181C241.892 199.111 241.873 198.987 241.784 198.951Z" fill="#B15952"/>
<path d="M218.758 180.141C216.449 178.468 213.572 182.047 212.424 183.592C210.562 186.1 209.029 188.896 207.721 191.694C206.415 194.487 205.313 197.38 204.619 200.367C204.272 201.863 204.026 203.383 203.876 204.907C203.72 206.487 203.477 208.05 204.945 209.105C205.477 209.488 206.201 209.238 206.652 208.897C207.82 208.013 207.536 206.389 207.618 205.123C207.701 203.832 207.876 202.555 208.137 201.285C208.695 198.564 209.578 195.907 210.739 193.364C211.875 190.875 213.245 188.491 214.729 186.174C215.343 185.216 215.971 184.262 216.824 183.475C217.709 182.656 218.775 182.335 219.188 181.138C219.326 180.732 219.079 180.374 218.758 180.141Z" fill="#61413A"/>
<path d="M286.737 219.995C286.083 218.255 285.379 216.512 284.492 214.865C282.805 211.731 280.058 209.136 276.502 208C274.854 207.473 273.191 207.243 271.555 207.254C271.689 206.737 271.735 206.188 271.751 205.549C271.782 204.295 271.762 203.039 271.694 201.786C271.553 199.201 271.238 196.585 270.67 194.051C270.122 191.609 269.241 189.194 268.295 186.867C267.826 185.714 267.318 184.574 266.77 183.453C266.227 182.342 265.758 181.123 264.652 180.426C263.877 179.937 262.954 180.595 262.909 181.373C262.844 182.489 263.557 183.551 263.982 184.565C264.441 185.66 264.858 186.771 265.234 187.894C265.993 190.161 266.482 192.461 266.909 194.802C267.332 197.123 267.661 199.429 267.768 201.784C267.821 202.964 267.831 204.146 267.796 205.327C267.77 206.205 267.736 206.942 267.948 207.689C264.009 208.614 260.439 210.944 257.92 214.157C256.687 215.729 255.742 217.465 254.967 219.275C254.178 221.116 253.431 222.982 253.825 224.975C253.992 225.821 255.171 225.788 255.604 225.195C256.74 223.638 257.05 221.724 257.863 220.004C258.676 218.286 259.705 216.618 261.009 215.191C263.434 212.536 266.681 210.642 270.436 210.371C274.137 210.104 277.463 211.418 279.51 214.42C280.551 215.947 281.298 217.648 281.928 219.358C282.274 220.299 282.617 221.248 282.892 222.21C283.224 223.373 283.038 224.709 283.512 225.798C284.176 227.327 286.139 227.681 287.177 226.252C288.452 224.498 287.42 221.811 286.737 219.995Z" fill="#61413A"/>
<path d="M258.158 228.741C258.023 228.345 257.804 227.989 257.507 227.682C257.292 227.459 256.995 227.283 256.675 227.163C256.681 226.906 256.684 226.649 256.648 226.394C256.602 226.067 256.548 225.741 256.496 225.415C256.436 225.044 256.215 224.695 256.057 224.349C255.803 223.793 255.032 223.467 254.432 223.467C253.733 223.467 253.188 223.82 252.807 224.349C252.73 224.456 252.651 224.563 252.576 224.671C252.409 224.91 252.311 225.185 252.21 225.455C252.105 225.735 251.985 226.007 251.938 226.301C251.869 226.735 251.796 227.169 251.75 227.607C251.702 228.063 251.758 228.482 251.836 228.939C252.006 229.932 252.66 230.739 253.511 231.304C253.755 231.466 254.051 231.561 254.326 231.662C254.532 231.738 254.711 231.754 254.94 231.783C255.64 231.872 256.381 231.834 256.994 231.452C257.463 231.16 257.81 230.798 258.03 230.305C258.243 229.826 258.331 229.247 258.158 228.741Z" fill="#BEB4AD"/>
<path d="M288.689 226.72C288.569 226.256 288.304 225.819 288.073 225.393C287.922 225.115 287.741 224.864 287.506 224.639C287.308 224.451 287.069 224.313 286.833 224.175C286.201 223.807 285.22 223.901 284.711 224.435C284.367 224.795 284.103 225.157 283.953 225.626C283.833 226 283.847 226.472 283.809 226.869C283.774 227.236 283.784 227.601 283.764 227.968V227.97C283.741 227.975 283.72 227.987 283.698 227.993C283.693 227.993 283.689 227.995 283.684 227.996C283.684 227.996 283.687 227.996 283.689 227.995C283.564 228.029 283.44 228.065 283.322 228.123C283.008 228.22 282.736 228.386 282.506 228.621C282.121 229.017 281.885 229.464 281.808 230C281.637 231.207 282.411 232.264 283.625 232.636C284.169 232.803 284.732 232.825 285.29 232.754C285.837 232.684 286.382 232.497 286.841 232.199C287.434 231.816 287.862 231.407 288.249 230.827C288.506 230.44 288.699 229.987 288.781 229.537C288.953 228.574 288.935 227.676 288.689 226.72Z" fill="#BEB4AD"/>
<path d="M212.394 210.271C210.282 204.842 201.673 203.277 198.687 210.118C195.033 218.492 209.691 225.503 212.555 215.052C213.047 213.261 212.928 211.643 212.394 210.271Z" fill="#BEB4AD"/>
<path d="M209.286 211.471C208.124 208.484 203.388 207.623 201.746 211.386C199.736 215.993 207.799 219.85 209.375 214.1C209.645 213.115 209.58 212.225 209.286 211.471Z" fill="#61413A"/>
<path d="M284.353 383.027C284.353 383.027 271.982 333.373 287.805 297.995C303.629 262.617 307.854 244.598 312.162 218.375C316.47 192.153 338.066 182.583 348.392 197.594C358.719 212.605 350.455 272.753 355.834 300.025C361.213 327.297 364.302 354.663 366.012 371.956" fill="#DC9678"/>
<path d="M147.611 288.503C146.536 285.616 144.375 283.537 141.46 281.677C139.01 280.113 136.365 278.942 133.649 278.112C130.583 277.175 127.663 277.186 125.29 279.672C123.365 281.686 122.006 284.825 121.257 287.611C120.33 291.061 121.34 294.39 123.838 296.758C126.206 299.003 129.21 300.72 132.059 302.065C135.262 303.577 138.844 304.732 142.242 303.572C146.373 302.161 148.315 297.866 148.373 293.307C148.395 291.473 148.129 289.894 147.611 288.503Z" fill="#E8BBA0"/>
<path d="M161.451 203.888C160.218 200.576 157.739 198.191 154.395 196.057C151.585 194.263 148.549 192.92 145.434 191.967C141.917 190.891 138.567 190.904 135.844 193.755C133.636 196.067 132.077 199.667 131.217 202.864C130.153 206.822 131.312 210.641 134.178 213.357C136.895 215.932 140.341 217.902 143.609 219.446C147.284 221.18 151.393 222.504 155.292 221.173C160.031 219.555 162.259 214.628 162.325 209.398C162.351 207.296 162.046 205.485 161.451 203.888Z" fill="#E8BBA0"/>
<path d="M292.715 286.918C291.649 288.089 291.013 289.506 290.3 290.888C289.497 292.446 288.774 294.036 288.074 295.638C286.672 298.846 285.399 302.094 284.316 305.411C282.203 311.885 280.539 318.503 279.526 325.212C277.465 338.856 277.453 352.641 279.515 366.284C280.095 370.121 280.841 373.935 281.754 377.714C282.211 379.602 282.709 381.483 283.249 383.353C283.765 385.138 284.213 387.183 285.786 388.39C286.416 388.873 287.363 388.736 287.614 387.932C288.115 386.327 287.603 384.772 287.134 383.199C286.618 381.467 286.138 379.726 285.694 377.976C284.875 374.746 284.178 371.488 283.603 368.212C282.457 361.677 281.829 355.061 281.674 348.438C281.36 335.023 282.921 321.548 286.298 308.514C287.237 304.891 288.301 301.285 289.472 297.722C290.079 295.877 290.753 294.055 291.394 292.22C291.99 290.514 292.797 288.835 293.048 287.05C293.071 286.891 292.82 286.804 292.715 286.918Z" fill="#D37452"/>
<path d="M148.275 308.101C146.817 307.803 145.317 308.817 144.034 309.32C142.54 309.906 140.88 310.277 139.265 310.357C135.501 310.543 131.703 309.388 128.14 308.363C124.624 307.351 121.162 306.157 117.792 304.769C116.129 304.084 114.487 303.356 112.867 302.585C111.414 301.893 109.748 300.799 108.073 300.753C107.864 300.748 107.734 300.977 107.837 301.143C108.751 302.622 110.831 303.471 112.354 304.263C114.07 305.155 115.815 305.999 117.585 306.793C121.149 308.39 124.812 309.794 128.549 310.984C132.288 312.174 136.284 313.439 140.284 313.13C142.069 312.992 143.749 312.565 145.386 311.88C146.75 311.309 148.676 310.269 148.719 308.654C148.726 308.416 148.528 308.153 148.275 308.101Z" fill="#D37452"/>
<path d="M149.576 278.723C146.976 276.41 143.585 275.379 140.377 274.016C137.063 272.607 133.803 271.083 130.606 269.449C127.413 267.817 124.254 266.12 121.151 264.338C119.683 263.495 118.225 262.616 116.737 261.807C115.788 261.292 114.601 260.939 113.755 261.795C113.552 262.001 113.754 262.321 114.04 262.259C115.512 261.941 117.27 263.881 118.336 264.651C119.664 265.61 121.028 266.516 122.412 267.402C125.237 269.209 128.136 270.886 131.117 272.454C134.024 273.981 136.985 275.417 139.994 276.758C142.976 278.086 145.93 279.461 149.287 279.388C149.629 279.38 149.842 278.96 149.576 278.723Z" fill="#D37452"/>
<path d="M146.507 228.262C145.945 228.259 145.409 228.112 144.853 228.097C144.305 228.083 143.785 227.992 143.258 227.835C142.728 227.677 142.203 227.538 141.678 227.36C141.158 227.185 140.675 226.942 140.226 226.639C140.031 226.507 139.788 226.762 139.905 226.943C140.566 227.963 141.597 228.915 142.855 229.22C143.487 229.374 144.152 229.451 144.805 229.441C145.464 229.43 146.106 229.126 146.665 228.814C146.932 228.663 146.818 228.263 146.507 228.262Z" fill="#D37452"/>
<path d="M149.971 185.791C149.754 184.67 148.178 184.02 147.278 183.443C146.221 182.763 145.179 182.061 144.154 181.34C143.159 180.639 142.177 179.922 141.191 179.211C140.22 178.511 139.269 177.648 138.127 177.209C137.621 177.015 137.254 177.637 137.468 178.021C138.043 179.05 139.139 179.858 140.035 180.63C140.981 181.445 141.964 182.21 142.972 182.956C143.968 183.693 144.976 184.413 146.002 185.112C146.956 185.761 148.206 186.909 149.481 186.609C149.871 186.518 150.038 186.138 149.971 185.791Z" fill="#D37452"/>
<path d="M241.953 56.1685C241.803 55.8322 241.654 55.4969 241.504 55.1606C241.224 54.669 240.842 54.274 240.357 53.9765C240.079 53.7151 239.752 53.5342 239.374 53.4338C238.843 53.1695 238.271 53.0482 237.658 53.07L236.474 53.2206C236.152 53.3059 235.853 53.4271 235.567 53.5711C235.374 53.6459 235.185 53.7321 234.999 53.8344C234.696 54.0561 234.393 54.2778 234.09 54.4994C233.533 55.0308 233.148 55.656 232.935 56.3769C232.748 56.9424 232.721 57.5079 232.855 58.0734C232.882 58.6398 233.06 59.1665 233.388 59.6553C233.67 60.1507 234.056 60.5495 234.545 60.8488C234.979 61.2249 235.488 61.4787 236.072 61.6104C236.868 61.8131 237.664 61.8131 238.46 61.6104C238.481 61.6047 238.501 61.599 238.521 61.5924C238.709 61.5261 238.942 61.4247 239.08 61.3698C239.227 61.3111 239.456 61.2258 239.638 61.1463C239.676 61.1301 239.712 61.1103 239.745 61.0875C240.068 60.8687 240.384 60.6385 240.689 60.397C240.704 60.3847 240.718 60.3723 240.732 60.3591C241.026 60.0768 241.271 59.7481 241.503 59.4185C241.829 58.9344 242.005 58.4115 242.032 57.8498C242.165 57.29 242.139 56.7292 241.953 56.1685Z" fill="#54443C"/>
<path d="M194.018 151.217C193.51 148.823 192.773 146.486 192.083 144.134C191.394 141.783 190.688 139.439 189.962 137.098C189.878 136.816 189.728 136.556 189.533 136.327V99.236C189.533 96.5373 187.223 94.3492 184.373 94.3492H120.319C117.469 94.3492 115.159 96.5373 115.159 99.236V141.879C115.159 144.579 117.469 146.767 120.319 146.767H183.622C184.221 147.327 184.821 147.886 185.425 148.443C187.12 150.007 188.795 151.59 190.468 153.175C192.042 154.664 194.421 153.119 194.018 151.217Z" fill="white"/>
<path d="M134.147 129.892C134.013 129.592 133.88 129.291 133.746 128.991C133.392 128.425 132.916 127.974 132.318 127.638C132.001 127.511 131.684 127.384 131.367 127.258C130.949 127.152 130.532 127.116 130.114 127.136C130.082 127.136 130.05 127.139 130.018 127.136C129.639 127.13 129.26 127.17 128.881 127.267C128.563 127.394 128.245 127.522 127.926 127.649C127.325 127.985 126.848 128.438 126.492 129.007C126.2 129.442 126.042 129.911 126.018 130.415C125.899 130.918 125.923 131.421 126.089 131.925C126.213 132.417 126.451 132.846 126.804 133.212C127.086 133.624 127.46 133.949 127.925 134.187C128.548 134.529 129.221 134.701 129.942 134.704C130.006 134.709 130.07 134.707 130.135 134.7C130.515 134.658 130.899 134.626 131.274 134.552C131.305 134.546 131.336 134.539 131.367 134.53C131.885 134.413 132.336 134.188 132.72 133.855C133.153 133.589 133.495 133.237 133.745 132.797C134.036 132.364 134.193 131.897 134.217 131.396C134.337 130.894 134.313 130.393 134.147 129.892Z" fill="#54443C"/>
<path d="M156.716 129.892C156.582 129.592 156.449 129.291 156.315 128.991C155.961 128.425 155.485 127.974 154.887 127.638C154.57 127.511 154.253 127.384 153.936 127.258C153.518 127.152 153.101 127.116 152.683 127.136C152.651 127.136 152.619 127.139 152.587 127.136C152.208 127.13 151.829 127.17 151.45 127.267C151.132 127.394 150.814 127.522 150.495 127.649C149.895 127.985 149.417 128.438 149.061 129.007C148.769 129.442 148.611 129.911 148.587 130.415C148.468 130.918 148.492 131.421 148.658 131.925C148.782 132.417 149.02 132.846 149.373 133.212C149.655 133.624 150.029 133.949 150.494 134.187C151.117 134.529 151.79 134.701 152.511 134.704C152.575 134.709 152.639 134.707 152.704 134.7C153.084 134.658 153.468 134.626 153.843 134.552C153.874 134.546 153.905 134.539 153.936 134.53C154.454 134.413 154.905 134.188 155.29 133.855C155.723 133.589 156.065 133.237 156.315 132.797C156.606 132.364 156.763 131.897 156.787 131.396C156.905 130.894 156.882 130.393 156.716 129.892Z" fill="#54443C"/>
<path d="M179.285 129.892C179.151 129.592 179.017 129.291 178.884 128.991C178.53 128.425 178.054 127.974 177.456 127.638C177.139 127.511 176.822 127.384 176.505 127.258C176.087 127.152 175.67 127.116 175.252 127.136C175.22 127.136 175.188 127.139 175.156 127.136C174.777 127.13 174.398 127.17 174.019 127.267C173.701 127.394 173.383 127.522 173.064 127.649C172.463 127.985 171.985 128.438 171.63 129.007C171.338 129.442 171.18 129.911 171.156 130.415C171.037 130.918 171.061 131.421 171.227 131.925C171.351 132.417 171.589 132.846 171.942 133.212C172.224 133.624 172.598 133.949 173.063 134.187C173.686 134.529 174.359 134.701 175.08 134.704C175.144 134.709 175.208 134.707 175.273 134.7C175.653 134.658 176.037 134.626 176.411 134.552C176.442 134.546 176.473 134.539 176.504 134.53C177.022 134.413 177.473 134.188 177.857 133.855C178.29 133.589 178.632 133.237 178.882 132.797C179.173 132.364 179.33 131.897 179.354 131.396C179.474 130.894 179.451 130.393 179.285 129.892Z" fill="#54443C"/>
<path d="M408.974 -2.2037e-06L344.613 19.6939L371.473 98.4565L435.834 78.7626L408.974 -2.2037e-06Z" fill="#54443C"/>
<path d="M406.199 4.07768L349.382 21.4631L374.249 94.3801L431.065 76.9947L406.199 4.07768Z" fill="white"/>
<path d="M380.201 7.96113C379.546 6.03916 377.37 4.98488 375.341 5.60627C373.313 6.22672 372.199 8.28793 372.855 10.2099L358.066 14.7358L360.589 22.132L397.514 10.8313L394.991 3.43518L380.201 7.96113Z" fill="#A1D0EF"/>
<path d="M362.168 29.7109C361.913 29.3471 361.581 29.0658 361.172 28.865C360.962 28.793 360.752 28.722 360.542 28.65C360.081 28.5552 359.625 28.5761 359.174 28.7125C358.827 28.8053 358.53 28.9711 358.283 29.2098C358.007 29.3992 357.795 29.6436 357.648 29.943C357.478 30.2309 357.393 30.5369 357.392 30.8599C357.332 31.1886 357.364 31.5135 357.488 31.8356C357.589 32.0354 357.69 32.2353 357.791 32.4361C358.046 32.7999 358.378 33.0812 358.787 33.2811C358.997 33.3531 359.207 33.4241 359.417 33.4961C359.879 33.5908 360.334 33.57 360.785 33.4336C361.132 33.3407 361.429 33.175 361.676 32.9363C361.952 32.7468 362.164 32.5024 362.311 32.2021C362.481 31.9142 362.567 31.6082 362.567 31.2852C362.627 30.9565 362.595 30.6307 362.471 30.3105C362.37 30.1116 362.269 29.9108 362.168 29.7109Z" fill="#ACC3D2"/>
<path d="M404.627 17.1722C402.736 19.0572 399.44 18.1317 397.18 19.3385C396.551 19.6738 396.165 20.1749 395.691 20.6713C395.415 20.9612 395.143 21.1156 394.757 20.9138C394.439 20.748 394.181 20.4923 393.865 20.3208C392.568 19.6151 391.278 20.4089 390.23 21.1411C389.642 21.5522 389.042 22.0183 388.34 22.2409C387.584 22.4796 386.758 22.383 385.978 22.3403C385.221 22.2987 384.43 22.2873 383.713 22.5582C382.944 22.849 382.382 23.4183 381.748 23.8986C381.465 24.1127 381.159 24.3239 380.797 24.3921C380.374 24.4726 379.964 24.3116 379.563 24.2017C378.948 24.034 378.328 24.0122 377.718 24.2121C376.491 24.6128 375.619 25.6046 374.647 26.3662C374.131 26.7697 373.534 27.1931 372.851 27.2774C371.984 27.3844 371.194 26.8568 370.338 26.8047C368.434 26.6901 366.894 28.2237 365.865 29.5555C365.614 29.8804 366.071 30.2925 366.368 29.9809C367.469 28.8243 368.908 27.1874 370.761 27.6402C371.495 27.8192 372.166 28.1517 372.946 28.0693C373.557 28.0049 374.127 27.7567 374.628 27.428C375.673 26.7413 376.48 25.7268 377.617 25.165C378.226 24.8638 378.798 24.8657 379.446 25.0466C380.206 25.2598 380.892 25.3621 381.632 25.0201C382.345 24.6905 382.864 24.1127 383.509 23.6911C384.198 23.2412 384.971 23.2042 385.783 23.244C386.588 23.2829 387.391 23.3766 388.191 23.2308C388.919 23.0982 389.562 22.7429 390.164 22.3451C390.757 21.9529 391.32 21.4821 391.975 21.1819C392.648 20.8721 393.172 20.9744 393.757 21.3912C394.318 21.7909 394.929 22.1376 395.644 21.8667C396.35 21.5996 396.665 20.9119 397.212 20.4629C399.446 18.6328 403.599 20.3274 405.17 17.5245C405.347 17.2034 404.883 16.9174 404.627 17.1722Z" fill="#ACC3D2"/>
<path d="M365.387 39.1493C365.132 38.7855 364.8 38.5032 364.391 38.3034C364.181 38.2314 363.971 38.1603 363.761 38.0883C363.299 37.9936 362.844 38.0145 362.393 38.1509C362.046 38.2437 361.749 38.4095 361.502 38.6482C361.225 38.8376 361.014 39.082 360.866 39.3813C360.696 39.6693 360.611 39.9753 360.61 40.2983C360.55 40.627 360.582 40.9528 360.706 41.2739C360.807 41.4738 360.908 41.6737 361.009 41.8745C361.264 42.2382 361.596 42.5205 362.005 42.7194C362.215 42.7914 362.425 42.8625 362.635 42.9345C363.096 43.0292 363.552 43.0084 364.003 42.8719C364.35 42.7791 364.647 42.6133 364.894 42.3746C365.17 42.1842 365.382 41.9399 365.529 41.6405C365.699 41.3526 365.785 41.0466 365.785 40.7236C365.845 40.3949 365.813 40.07 365.69 39.7489C365.589 39.549 365.488 39.3491 365.387 39.1493Z" fill="#ACC3D2"/>
<path d="M407.846 26.6096C405.955 28.4946 402.659 27.5692 400.399 28.775C399.77 29.1103 399.384 29.6114 398.91 30.1078C398.634 30.3976 398.362 30.5511 397.976 30.3503C397.658 30.1845 397.4 29.9288 397.084 29.7573C395.787 29.0516 394.497 29.8454 393.449 30.5776C392.861 30.9887 392.261 31.4557 391.559 31.6774C390.803 31.9161 389.977 31.8195 389.197 31.7768C388.44 31.7352 387.649 31.7238 386.932 31.9947C386.163 32.2855 385.601 32.8548 384.967 33.3351C384.684 33.5491 384.378 33.7604 384.016 33.8295C383.593 33.91 383.183 33.749 382.782 33.6391C382.167 33.4715 381.547 33.4497 380.937 33.6495C379.71 34.0502 378.838 35.042 377.866 35.8036C377.35 36.2071 376.753 36.6305 376.07 36.7148C375.203 36.8219 374.413 36.2943 373.557 36.2422C371.653 36.1275 370.113 37.6611 369.084 38.993C368.833 39.3179 369.29 39.7299 369.587 39.4183C370.688 38.2617 372.127 36.6258 373.98 37.0776C374.714 37.2567 375.385 37.5891 376.165 37.5067C376.776 37.4423 377.346 37.1941 377.847 36.8654C378.892 36.1787 379.699 35.1642 380.836 34.6025C381.445 34.3012 382.017 34.3031 382.665 34.4841C383.425 34.6972 384.11 34.7995 384.851 34.4575C385.564 34.1279 386.083 33.5501 386.728 33.1286C387.417 32.6786 388.19 32.6417 389.002 32.6815C389.807 32.7203 390.61 32.8141 391.41 32.6682C392.138 32.5356 392.781 32.1804 393.383 31.7825C393.975 31.3904 394.539 30.9196 395.193 30.6193C395.867 30.3095 396.39 30.4119 396.975 30.8286C397.536 31.2284 398.147 31.5751 398.862 31.3042C399.568 31.037 399.883 30.3493 400.43 29.9003C402.664 28.0703 406.817 29.7649 408.388 26.962C408.566 26.6418 408.102 26.3548 407.846 26.6096Z" fill="#ACC3D2"/>
<path d="M368.606 48.5867C368.351 48.2229 368.019 47.9416 367.61 47.7408C367.4 47.6688 367.19 47.5978 366.98 47.5258C366.519 47.4311 366.063 47.4519 365.612 47.5883C365.265 47.6811 364.968 47.8469 364.721 48.0856C364.445 48.275 364.233 48.5194 364.086 48.8188C363.916 49.1067 363.831 49.4127 363.83 49.7357C363.77 50.0653 363.802 50.3893 363.926 50.7114C364.027 50.9112 364.128 51.1111 364.229 51.3119C364.484 51.6757 364.816 51.9579 365.225 52.1578C365.435 52.2298 365.645 52.3008 365.855 52.3728C366.317 52.4676 366.772 52.4467 367.223 52.3103C367.57 52.2175 367.867 52.0517 368.114 51.813C368.39 51.6236 368.602 51.3792 368.749 51.0789C368.919 50.7909 369.004 50.485 369.005 50.162C369.065 49.8333 369.033 49.5084 368.909 49.1872C368.808 48.9874 368.707 48.7866 368.606 48.5867Z" fill="#ACC3D2"/>
<path d="M411.066 36.048C409.175 37.933 405.879 37.0075 403.619 38.2143C402.99 38.5497 402.604 39.0507 402.13 39.5471C401.854 39.837 401.582 39.9914 401.196 39.7896C400.878 39.6238 400.62 39.3681 400.304 39.1966C399.007 38.4909 397.717 39.2847 396.669 40.0169C396.081 40.428 395.481 40.8941 394.779 41.1167C394.022 41.3554 393.197 41.2588 392.417 41.2162C391.66 41.1745 390.869 41.1631 390.152 41.434C389.383 41.7248 388.821 42.2941 388.187 42.7744C387.904 42.9885 387.598 43.1997 387.236 43.2679C386.813 43.3484 386.403 43.1874 386.002 43.0775C385.387 42.9098 384.767 42.888 384.157 43.0879C382.93 43.4886 382.058 44.4804 381.086 45.242C380.57 45.6455 379.973 46.0689 379.29 46.1532C378.423 46.2602 377.633 45.7326 376.777 45.6815C374.873 45.5669 373.333 47.0995 372.304 48.4323C372.053 48.7572 372.51 49.1692 372.807 48.8576C373.908 47.701 375.347 46.0642 377.2 46.517C377.934 46.696 378.605 47.0285 379.385 46.9461C379.996 46.8816 380.566 46.6335 381.067 46.3048C382.112 45.618 382.919 44.6035 384.056 44.0418C384.665 43.7406 385.236 43.7425 385.885 43.9234C386.645 44.1356 387.33 44.2388 388.071 43.8969C388.784 43.5672 389.303 42.9894 389.948 42.5679C390.637 42.1179 391.41 42.081 392.222 42.1208C393.027 42.1596 393.83 42.2534 394.63 42.1075C395.358 41.9749 396.001 41.6197 396.603 41.2218C397.195 40.8297 397.759 40.3589 398.414 40.0586C399.087 39.7489 399.611 39.8512 400.196 40.268C400.757 40.6677 401.368 41.0144 402.083 40.7435C402.789 40.4764 403.104 39.7887 403.651 39.3397C405.885 37.5096 410.038 39.2033 411.609 36.4013C411.785 36.0792 411.321 35.7932 411.066 36.048Z" fill="#ACC3D2"/>
<path d="M371.825 58.0251C371.57 57.6613 371.238 57.38 370.829 57.1792C370.619 57.1072 370.409 57.0361 370.199 56.9641C369.737 56.8694 369.282 56.8903 368.831 57.0267C368.484 57.1195 368.187 57.2853 367.94 57.524C367.664 57.7134 367.452 57.9578 367.305 58.2571C367.135 58.5451 367.05 58.8511 367.049 59.1741C366.989 59.5028 367.021 59.8277 367.145 60.1497C367.246 60.3496 367.347 60.5495 367.448 60.7503C367.703 61.114 368.035 61.3963 368.444 61.5962C368.654 61.6682 368.864 61.7392 369.074 61.8112C369.535 61.9059 369.991 61.8851 370.442 61.7487C370.789 61.6559 371.086 61.4901 371.333 61.2514C371.609 61.061 371.821 60.8166 371.968 60.5173C372.138 60.2293 372.223 59.9233 372.224 59.6003C372.284 59.2716 372.252 58.9467 372.129 58.6256C372.027 58.4248 371.926 58.2249 371.825 58.0251Z" fill="#ACC3D2"/>
<path d="M414.285 45.4854C412.394 47.3704 409.098 46.445 406.838 47.6508C406.209 47.9861 405.823 48.4872 405.349 48.9836C405.073 49.2734 404.801 49.4278 404.415 49.2261C404.097 49.0603 403.839 48.8046 403.523 48.6331C402.226 47.9274 400.936 48.7212 399.888 49.4534C399.3 49.8645 398.7 50.3306 397.998 50.5532C397.241 50.7919 396.416 50.6953 395.636 50.6526C394.879 50.611 394.088 50.5996 393.371 50.8705C392.602 51.1613 392.04 51.7306 391.406 52.2109C391.123 52.4259 390.817 52.6362 390.455 52.7053C390.032 52.7858 389.622 52.6248 389.221 52.5149C388.606 52.3473 387.986 52.3255 387.376 52.5253C386.149 52.926 385.277 53.9178 384.305 54.6794C383.789 55.0829 383.192 55.5063 382.509 55.5906C381.642 55.6977 380.852 55.1701 379.996 55.118C378.092 55.0033 376.552 56.536 375.523 57.8688C375.272 58.1937 375.729 58.6057 376.026 58.2941C377.127 57.1375 378.566 55.5006 380.419 55.9534C381.153 56.1325 381.824 56.4649 382.604 56.3825C383.215 56.3181 383.785 56.0699 384.286 55.7412C385.331 55.0545 386.138 54.04 387.275 53.4783C387.884 53.177 388.456 53.1789 389.104 53.3608C389.864 53.573 390.549 53.6762 391.29 53.3343C392.003 53.0046 392.522 52.4268 393.167 52.0053C393.856 51.5554 394.629 51.5184 395.441 51.5582C396.246 51.597 397.049 51.6908 397.849 51.5449C398.577 51.4123 399.22 51.0571 399.822 50.6593C400.414 50.2671 400.978 49.7963 401.632 49.496C402.306 49.1863 402.829 49.2886 403.414 49.7054C403.975 50.1051 404.586 50.4518 405.301 50.1809C406.007 49.9138 406.322 49.2261 406.869 48.7771C409.102 46.947 413.256 48.6407 414.826 45.8387C415.005 45.5176 414.54 45.2306 414.285 45.4854Z" fill="#ACC3D2"/>
<path d="M375.044 67.4625C374.789 67.0987 374.457 66.8174 374.048 66.6166C373.838 66.5446 373.628 66.4736 373.418 66.4016C372.957 66.3068 372.501 66.3277 372.05 66.4641C371.703 66.5569 371.406 66.7227 371.159 66.9614C370.883 67.1508 370.671 67.3952 370.524 67.6946C370.354 67.9825 370.269 68.2885 370.268 68.6115C370.208 68.9411 370.24 69.2651 370.364 69.5872C370.465 69.787 370.566 69.9869 370.667 70.1877C370.922 70.5515 371.254 70.8337 371.663 71.0336C371.873 71.1056 372.083 71.1766 372.293 71.2486C372.755 71.3434 373.21 71.3225 373.661 71.1861C374.008 71.0933 374.305 70.9275 374.552 70.6888C374.829 70.4994 375.04 70.255 375.188 69.9556C375.358 69.6677 375.443 69.3617 375.444 69.0387C375.504 68.71 375.472 68.3842 375.348 68.064C375.246 67.8632 375.145 67.6624 375.044 67.4625Z" fill="#ACC3D2"/>
<path d="M417.504 54.9238C415.613 56.8088 412.317 55.8833 410.057 57.0901C409.428 57.4255 409.042 57.9266 408.568 58.4229C408.292 58.7128 408.02 58.8672 407.634 58.6654C407.316 58.4996 407.058 58.2439 406.742 58.0724C405.445 57.3667 404.155 58.1605 403.107 58.8927C402.519 59.3039 401.919 59.7699 401.217 59.9925C400.46 60.2312 399.635 60.1346 398.855 60.092C398.098 60.0503 397.307 60.038 396.59 60.3098C395.821 60.6006 395.259 61.1699 394.625 61.6502C394.342 61.8643 394.036 62.0755 393.674 62.1437C393.251 62.2242 392.841 62.0632 392.44 61.9533C391.825 61.7856 391.205 61.7638 390.595 61.9637C389.368 62.3644 388.496 63.3562 387.524 64.1178C387.008 64.5213 386.411 64.9447 385.728 65.029C384.861 65.1361 384.071 64.6084 383.215 64.5573C381.311 64.4427 379.771 65.9753 378.742 67.3081C378.491 67.633 378.948 68.045 379.245 67.7334C380.346 66.5768 381.785 64.94 383.638 65.3928C384.372 65.5718 385.043 65.9043 385.823 65.8219C386.434 65.7574 387.004 65.5093 387.505 65.1806C388.55 64.4938 389.357 63.4793 390.494 62.9176C391.103 62.6164 391.674 62.6183 392.323 62.7992C393.083 63.0123 393.769 63.1146 394.509 62.7727C395.222 62.443 395.741 61.8652 396.386 61.4437C397.075 60.9937 397.848 60.9568 398.66 60.9966C399.465 61.0354 400.268 61.1292 401.068 60.9833C401.796 60.8507 402.439 60.4955 403.041 60.0976C403.633 59.7055 404.197 59.2347 404.852 58.9344C405.526 58.6247 406.049 58.727 406.634 59.1438C407.195 59.5435 407.806 59.8902 408.521 59.6193C409.227 59.3522 409.542 58.6645 410.089 58.2155C412.322 56.3854 416.476 58.0791 418.046 55.2771C418.224 54.956 417.76 54.669 417.504 54.9238Z" fill="#ACC3D2"/>
<path d="M37.7096 155.018C28.4376 142.725 -7.17042 139.726 1.28858 168.204C9.74758 196.682 51.2086 207.124 51.2086 207.124C51.2086 207.124 82.8566 179.687 76.4366 150.735C70.0156 121.782 39.9196 140.056 37.7096 155.018Z" fill="#D3756D"/>
<path d="M72.2966 165.953C69.8506 166.354 67.5066 167.203 65.3756 168.405L61.6226 161.711C61.1616 160.888 59.8636 161.254 59.8096 162.132C59.4836 167.424 59.1576 172.714 58.8326 178.005C55.5126 171.381 52.1926 164.756 48.8726 158.132C48.4676 157.323 47.0556 157.671 47.0736 158.55C47.2456 166.841 47.6756 175.127 48.3706 183.393C48.4406 184.222 48.5266 185.049 48.6016 185.877C45.9056 180.06 44.5326 173.719 41.9366 167.854C41.0176 165.777 39.9346 163.77 38.6136 161.896C38.0946 161.159 36.9226 161.398 36.8416 162.309C36.4166 167.11 35.9926 171.912 35.5676 176.713C34.4136 173.838 33.0306 171.06 30.9696 168.638C30.4416 168.019 29.3896 168.519 29.3576 169.231C29.0806 175.554 29.0496 181.884 29.2446 188.209C26.3636 182.1 25.4586 175.27 23.2286 168.933C22.4736 166.787 21.5676 164.687 20.4156 162.704C20.0116 162.009 18.7666 162.256 18.7816 163.084C18.8666 167.834 18.8886 172.591 19.0716 177.338C16.3356 177.969 13.5996 178.593 10.8856 179.306C10.2136 179.483 10.4656 180.399 11.1416 180.293C14.1436 179.827 17.1226 179.255 20.1076 178.7C20.4526 178.635 20.7316 178.295 20.7336 177.966C20.7576 174.3 20.6776 170.631 20.6006 166.964C23.2446 173.179 24.0826 179.997 26.4756 186.308C27.2816 188.435 28.2526 190.5 29.4936 192.433C29.9366 193.122 31.2566 192.938 31.2186 192.032C30.9346 185.344 30.9166 178.646 31.1446 171.955C32.9696 174.787 34.1186 177.992 35.2256 181.124C35.5606 182.071 36.9896 181.97 37.0816 180.936C37.5486 175.682 38.0166 170.427 38.4836 165.173C41.9786 171.279 43.3806 178.259 46.0406 184.709C46.9136 186.825 47.9096 188.89 49.1416 190.842C49.5816 191.539 51.0226 191.372 50.9266 190.428C50.0906 182.173 49.5116 173.896 49.1976 165.609C49.1626 164.692 49.1456 163.774 49.1176 162.857C52.3236 169.258 55.5286 175.661 58.7346 182.062C59.1616 182.916 60.4896 182.492 60.5416 181.642C60.8756 176.254 61.2086 170.865 61.5416 165.477C62.4106 167.029 63.2796 168.58 64.1496 170.131C64.3816 170.545 65.0386 170.755 65.4686 170.484C67.6876 169.09 70.1356 168.167 72.7596 167.736C73.9906 167.537 73.5226 165.752 72.2966 165.953Z" fill="white"/>
</svg>
