<svg width="156" height="24" viewBox="0 0 156 24" fill="none" xmlns="http://www.w3.org/2000/svg">
<path d="M17.168 8.344H17.072L15.44 11.608L11.088 19.512L6.832 11.64L5.136 8.12H5.04V23H0.464V0.664H5.616L11.088 11.128H11.152L16.56 0.664H21.744V23H17.168V8.344ZM26.6828 23V0.664H41.8828V4.984H31.5468V9.56H40.4108V13.848H31.5468V18.68H41.8828V23H26.6828ZM46.1203 0.664H54.5363C56.0083 0.664 57.3523 0.898666 58.5683 1.368C59.7843 1.83733 60.8189 2.54133 61.6723 3.48C62.5256 4.39733 63.1869 5.56 63.6562 6.968C64.1256 8.35467 64.3603 9.976 64.3603 11.832C64.3603 13.688 64.1256 15.32 63.6562 16.728C63.1869 18.1147 62.5256 19.2773 61.6723 20.216C60.8189 21.1333 59.7843 21.8267 58.5683 22.296C57.3523 22.7653 56.0083 23 54.5363 23H46.1203V0.664ZM54.5363 18.68C55.9869 18.68 57.1283 18.2747 57.9603 17.464C58.7923 16.6533 59.2083 15.352 59.2083 13.56V10.104C59.2083 8.312 58.7923 7.01067 57.9603 6.2C57.1283 5.38933 55.9869 4.984 54.5363 4.984H50.9843V18.68H54.5363ZM67.5688 23V19.128H70.4488V4.536H67.5688V0.664H78.1928V4.536H75.3128V19.128H78.1928V23H67.5688ZM91.2693 23.384C89.7546 23.384 88.3893 23.1493 87.1733 22.68C85.9573 22.1893 84.9226 21.4747 84.0693 20.536C83.2159 19.576 82.5546 18.392 82.0853 16.984C81.6159 15.5547 81.3813 13.8907 81.3813 11.992C81.3813 10.1147 81.6159 8.45067 82.0853 7C82.5546 5.528 83.2159 4.30133 84.0693 3.32C84.9226 2.31733 85.9573 1.56 87.1733 1.048C88.3893 0.535999 89.7546 0.279999 91.2693 0.279999C93.3386 0.279999 95.0453 0.706666 96.3893 1.56C97.7333 2.392 98.8106 3.71467 99.6213 5.528L95.4293 7.704C95.1306 6.76533 94.6613 6.01867 94.0213 5.464C93.4026 4.888 92.4853 4.6 91.2693 4.6C89.8399 4.6 88.6879 5.06933 87.8133 6.008C86.9599 6.92533 86.5333 8.26933 86.5333 10.04V13.624C86.5333 15.3947 86.9599 16.7493 87.8133 17.688C88.6879 18.6053 89.8399 19.064 91.2693 19.064C92.4639 19.064 93.4133 18.744 94.1173 18.104C94.8426 17.4427 95.3759 16.6533 95.7173 15.736L99.6853 18.04C98.8533 19.7467 97.7546 21.0693 96.3893 22.008C95.0453 22.9253 93.3386 23.384 91.2693 23.384ZM116.599 23L114.999 17.688H107.543L105.943 23H101.015L108.375 0.664H114.391L121.655 23H116.599ZM111.319 5.08H111.159L108.695 13.56H113.815L111.319 5.08ZM124.745 23V0.664H129.609V18.68H138.121V23H124.745ZM141.714 23V0.664H146.578V18.68H155.09V23H141.714Z" fill="#0360D9"/>
</svg>
