<svg width="398" height="195" viewBox="0 0 398 195" fill="none" xmlns="http://www.w3.org/2000/svg">
<g clip-path="url(#clip0_27_586)">
<path d="M203.31 194.44L259.58 138.18L203.31 81.9099L147.04 138.18L203.31 194.44Z" fill="#0360D9"/>
<path d="M84.88 9.28003H321.74C363.46 9.28003 397.34 43.15 397.34 84.88V85.38C397.34 127.1 363.47 160.98 321.74 160.98H84.88C43.16 160.98 9.28003 127.11 9.28003 85.38V84.88C9.28003 43.16 43.16 9.28003 84.88 9.28003Z" fill="#0360D9"/>
<path d="M324.39 170.25H289.82C289.09 170.25 288.49 169.66 288.49 168.92C288.49 168.18 289.08 167.59 289.82 167.59H324.39C351.06 167.59 375.83 154.33 390.64 132.11C391.04 131.5 391.87 131.34 392.48 131.74C393.09 132.15 393.25 132.97 392.85 133.58C377.54 156.54 351.95 170.24 324.39 170.24V170.25ZM69.33 169.23C69.26 169.23 69.19 169.23 69.12 169.21C50.03 166.15 32.54 156.35 19.87 141.62C7.05 126.73 0 107.7 0 88.03V87.76C0 87.03 0.59 86.43 1.33 86.43C2.07 86.43 2.66 87.02 2.66 87.76V88.03C2.66 127.35 30.79 160.39 69.55 166.6C70.27 166.72 70.77 167.4 70.65 168.12C70.55 168.77 69.98 169.24 69.34 169.24L69.33 169.23ZM284.3 2.64999H170.13C169.4 2.64999 168.8 2.05999 168.8 1.31999C168.8 0.57999 169.39 -0.0100098 170.13 -0.0100098H284.3C285.03 -0.0100098 285.63 0.57999 285.63 1.31999C285.63 2.05999 285.04 2.64999 284.3 2.64999Z" fill="#0360D9"/>
<path d="M172.679 82V79.48L179.159 73.36C179.671 72.896 180.047 72.48 180.287 72.112C180.527 71.744 180.687 71.408 180.767 71.104C180.863 70.8 180.911 70.52 180.911 70.264C180.911 69.592 180.679 69.08 180.215 68.728C179.767 68.36 179.103 68.176 178.223 68.176C177.519 68.176 176.863 68.312 176.255 68.584C175.663 68.856 175.159 69.28 174.743 69.856L171.911 68.032C172.551 67.072 173.447 66.312 174.599 65.752C175.751 65.192 177.079 64.912 178.583 64.912C179.831 64.912 180.919 65.12 181.847 65.536C182.791 65.936 183.519 66.504 184.031 67.24C184.559 67.976 184.823 68.856 184.823 69.88C184.823 70.424 184.751 70.968 184.607 71.512C184.479 72.04 184.207 72.6 183.791 73.192C183.391 73.784 182.799 74.448 182.015 75.184L176.639 80.248L175.895 78.832H185.375V82H172.679ZM186.529 78.472V75.856L194.449 65.2H198.529L190.777 75.856L188.881 75.304H202.105V78.472H186.529ZM195.577 82V78.472L195.697 75.304V72.16H199.369V82H195.577ZM202.103 84.4L210.023 61.792H213.359L205.439 84.4H202.103ZM216.058 82L222.826 66.688L223.834 68.368H214.786L216.514 66.544V71.104H213.058V65.2H226.522V67.72L220.282 82H216.058ZM100.195 111.288C98.867 111.288 97.635 111.072 96.499 110.64C95.379 110.208 94.403 109.6 93.571 108.816C92.755 108.032 92.115 107.112 91.651 106.056C91.203 105 90.979 103.848 90.979 102.6C90.979 101.352 91.203 100.2 91.651 99.144C92.115 98.088 92.763 97.168 93.595 96.384C94.427 95.6 95.403 94.992 96.523 94.56C97.643 94.128 98.859 93.912 100.171 93.912C101.499 93.912 102.715 94.128 103.819 94.56C104.939 94.992 105.907 95.6 106.723 96.384C107.555 97.168 108.203 98.088 108.667 99.144C109.131 100.184 109.363 101.336 109.363 102.6C109.363 103.848 109.131 105.008 108.667 106.08C108.203 107.136 107.555 108.056 106.723 108.84C105.907 109.608 104.939 110.208 103.819 110.64C102.715 111.072 101.507 111.288 100.195 111.288ZM100.171 107.976C100.923 107.976 101.611 107.848 102.235 107.592C102.875 107.336 103.435 106.968 103.915 106.488C104.395 106.008 104.763 105.44 105.019 104.784C105.291 104.128 105.427 103.4 105.427 102.6C105.427 101.8 105.291 101.072 105.019 100.416C104.763 99.76 104.395 99.192 103.915 98.712C103.451 98.232 102.899 97.864 102.259 97.608C101.619 97.352 100.923 97.224 100.171 97.224C99.419 97.224 98.723 97.352 98.083 97.608C97.459 97.864 96.907 98.232 96.427 98.712C95.947 99.192 95.571 99.76 95.299 100.416C95.043 101.072 94.915 101.8 94.915 102.6C94.915 103.384 95.043 104.112 95.299 104.784C95.571 105.44 95.939 106.008 96.403 106.488C96.883 106.968 97.443 107.336 98.083 107.592C98.723 107.848 99.419 107.976 100.171 107.976ZM112.285 111V94.2H115.501L125.413 106.296H123.853V94.2H127.693V111H124.501L114.565 98.904H116.125V111H112.285ZM131.668 111V94.2H135.556V107.832H143.98V111H131.668ZM146.152 111V94.2H150.04V111H146.152ZM154.027 111V94.2H157.243L167.155 106.296H165.595V94.2H169.435V111H166.243L156.307 98.904H157.867V111H154.027ZM176.986 100.968H185.074V103.992H176.986V100.968ZM177.274 107.88H186.418V111H173.41V94.2H186.106V97.32H177.274V107.88ZM201.828 111.288C200.484 111.288 199.196 111.112 197.964 110.76C196.732 110.392 195.74 109.92 194.988 109.344L196.308 106.416C197.028 106.928 197.876 107.352 198.852 107.688C199.844 108.008 200.844 108.168 201.852 108.168C202.62 108.168 203.236 108.096 203.7 107.952C204.18 107.792 204.532 107.576 204.756 107.304C204.98 107.032 205.092 106.72 205.092 106.368C205.092 105.92 204.916 105.568 204.564 105.312C204.212 105.04 203.748 104.824 203.172 104.664C202.596 104.488 201.956 104.328 201.252 104.184C200.564 104.024 199.868 103.832 199.164 103.608C198.476 103.384 197.844 103.096 197.268 102.744C196.692 102.392 196.22 101.928 195.852 101.352C195.5 100.776 195.324 100.04 195.324 99.144C195.324 98.184 195.58 97.312 196.092 96.528C196.62 95.728 197.404 95.096 198.444 94.632C199.5 94.152 200.82 93.912 202.404 93.912C203.46 93.912 204.5 94.04 205.524 94.296C206.548 94.536 207.452 94.904 208.236 95.4L207.036 98.352C206.252 97.904 205.468 97.576 204.684 97.368C203.9 97.144 203.132 97.032 202.38 97.032C201.628 97.032 201.012 97.12 200.532 97.296C200.052 97.472 199.708 97.704 199.5 97.992C199.292 98.264 199.188 98.584 199.188 98.952C199.188 99.384 199.364 99.736 199.716 100.008C200.068 100.264 200.532 100.472 201.108 100.632C201.684 100.792 202.316 100.952 203.004 101.112C203.708 101.272 204.404 101.456 205.092 101.664C205.796 101.872 206.436 102.152 207.012 102.504C207.588 102.856 208.052 103.32 208.404 103.896C208.772 104.472 208.956 105.2 208.956 106.08C208.956 107.024 208.692 107.888 208.164 108.672C207.636 109.456 206.844 110.088 205.788 110.568C204.748 111.048 203.428 111.288 201.828 111.288ZM219.077 111.288C216.693 111.288 214.829 110.624 213.485 109.296C212.141 107.968 211.469 106.072 211.469 103.608V94.2H215.357V103.464C215.357 105.064 215.685 106.216 216.341 106.92C216.997 107.624 217.917 107.976 219.101 107.976C220.285 107.976 221.205 107.624 221.861 106.92C222.517 106.216 222.845 105.064 222.845 103.464V94.2H226.685V103.608C226.685 106.072 226.013 107.968 224.669 109.296C223.325 110.624 221.461 111.288 219.077 111.288ZM230.527 111V94.2H237.799C239.303 94.2 240.599 94.448 241.687 94.944C242.775 95.424 243.615 96.12 244.207 97.032C244.799 97.944 245.095 99.032 245.095 100.296C245.095 101.544 244.799 102.624 244.207 103.536C243.615 104.448 242.775 105.152 241.687 105.648C240.599 106.128 239.303 106.368 237.799 106.368H232.687L234.415 104.616V111H230.527ZM234.415 105.048L232.687 103.2H237.583C238.783 103.2 239.679 102.944 240.271 102.432C240.863 101.92 241.159 101.208 241.159 100.296C241.159 99.368 240.863 98.648 240.271 98.136C239.679 97.624 238.783 97.368 237.583 97.368H232.687L234.415 95.52V105.048ZM247.871 111V94.2H255.143C256.647 94.2 257.943 94.448 259.031 94.944C260.119 95.424 260.959 96.12 261.551 97.032C262.143 97.944 262.439 99.032 262.439 100.296C262.439 101.544 262.143 102.624 261.551 103.536C260.959 104.448 260.119 105.152 259.031 105.648C257.943 106.128 256.647 106.368 255.143 106.368H250.031L251.759 104.616V111H247.871ZM251.759 105.048L250.031 103.2H254.927C256.127 103.2 257.023 102.944 257.615 102.432C258.207 101.92 258.503 101.208 258.503 100.296C258.503 99.368 258.207 98.648 257.615 98.136C257.023 97.624 256.127 97.368 254.927 97.368H250.031L251.759 95.52V105.048ZM273.609 111.288C272.281 111.288 271.049 111.072 269.913 110.64C268.793 110.208 267.817 109.6 266.985 108.816C266.169 108.032 265.529 107.112 265.065 106.056C264.617 105 264.393 103.848 264.393 102.6C264.393 101.352 264.617 100.2 265.065 99.144C265.529 98.088 266.177 97.168 267.009 96.384C267.841 95.6 268.817 94.992 269.937 94.56C271.057 94.128 272.273 93.912 273.585 93.912C274.913 93.912 276.129 94.128 277.233 94.56C278.353 94.992 279.321 95.6 280.137 96.384C280.969 97.168 281.617 98.088 282.081 99.144C282.545 100.184 282.777 101.336 282.777 102.6C282.777 103.848 282.545 105.008 282.081 106.08C281.617 107.136 280.969 108.056 280.137 108.84C279.321 109.608 278.353 110.208 277.233 110.64C276.129 111.072 274.921 111.288 273.609 111.288ZM273.585 107.976C274.337 107.976 275.025 107.848 275.649 107.592C276.289 107.336 276.849 106.968 277.329 106.488C277.809 106.008 278.177 105.44 278.433 104.784C278.705 104.128 278.841 103.4 278.841 102.6C278.841 101.8 278.705 101.072 278.433 100.416C278.177 99.76 277.809 99.192 277.329 98.712C276.865 98.232 276.313 97.864 275.673 97.608C275.033 97.352 274.337 97.224 273.585 97.224C272.833 97.224 272.137 97.352 271.497 97.608C270.873 97.864 270.321 98.232 269.841 98.712C269.361 99.192 268.985 99.76 268.713 100.416C268.457 101.072 268.329 101.8 268.329 102.6C268.329 103.384 268.457 104.112 268.713 104.784C268.985 105.44 269.353 106.008 269.817 106.488C270.297 106.968 270.857 107.336 271.497 107.592C272.137 107.848 272.833 107.976 273.585 107.976ZM285.699 111V94.2H292.971C294.475 94.2 295.771 94.448 296.859 94.944C297.947 95.424 298.787 96.12 299.379 97.032C299.971 97.944 300.267 99.032 300.267 100.296C300.267 101.544 299.971 102.624 299.379 103.536C298.787 104.432 297.947 105.12 296.859 105.6C295.771 106.08 294.475 106.32 292.971 106.32H287.859L289.587 104.616V111H285.699ZM296.379 111L292.179 104.904H296.331L300.579 111H296.379ZM289.587 105.048L287.859 103.224H292.755C293.955 103.224 294.851 102.968 295.443 102.456C296.035 101.928 296.331 101.208 296.331 100.296C296.331 99.368 296.035 98.648 295.443 98.136C294.851 97.624 293.955 97.368 292.755 97.368H287.859L289.587 95.52V105.048ZM306.593 111V97.368H301.217V94.2H315.857V97.368H310.481V111H306.593Z" fill="white"/>
</g>
<defs>
<clipPath id="clip0_27_586">
<rect width="397.34" height="194.44" fill="white"/>
</clipPath>
</defs>
</svg>
